<?xml version="1.0" encoding="UTF-8"?>
<svg width="48px" height="48px" viewBox="0 0 48 48" version="1.1" xmlns="http://www.w3.org/2000/svg" xmlns:xlink="http://www.w3.org/1999/xlink">
    <title>icon/半成品带管理</title>
    <defs>
        <linearGradient x1="83.1985154%" y1="50%" x2="0%" y2="50%" id="linearGradient-1">
            <stop stop-color="#FFFFFF" stop-opacity="0" offset="0%"></stop>
            <stop stop-color="#FFFFFF" offset="100%"></stop>
        </linearGradient>
        <circle id="path-2" cx="13" cy="28" r="6"></circle>
        <filter x="-54.2%" y="-45.8%" width="208.3%" height="208.3%" filterUnits="objectBoundingBox" id="filter-3">
            <feOffset dx="0" dy="1" in="SourceAlpha" result="shadowOffsetOuter1"></feOffset>
            <feGaussianBlur stdDeviation="2" in="shadowOffsetOuter1" result="shadowBlurOuter1"></feGaussianBlur>
            <feComposite in="shadowBlurOuter1" in2="SourceAlpha" operator="out" result="shadowBlurOuter1"></feComposite>
            <feColorMatrix values="0 0 0 0 0.992156863   0 0 0 0 0.270588235   0 0 0 0 0.254901961  0 0 0 0.2 0" type="matrix" in="shadowBlurOuter1"></feColorMatrix>
        </filter>
        <path d="M37.0964494,20 L38.0498048,22.5415203 C38.1141588,22.5742863 38.1777089,22.6084047 38.2404176,22.643838 L40.9086272,22.2009619 L42.4086272,24.7990381 L40.7794791,26.779097 C40.7826631,26.8523336 40.7842715,26.925979 40.7842715,27 C40.7842715,27.074021 40.7826631,27.1476664 40.7794791,27.220903 L42.4086272,29.2009619 L40.9086272,31.7990381 L38.2404176,31.356162 C38.178037,31.3914099 38.1148237,31.4253566 38.0508148,31.4579653 L37.0964494,34 L34.0964494,34 L33.0952715,31.331 L30.2842715,31.7990381 L28.7842715,29.2009619 L30.5942715,26.999 L28.7842715,24.7990381 L30.2842715,22.2009619 L33.0962715,22.668 L34.0964494,20 L37.0964494,20 Z M35.7842715,25 C34.679702,25 33.7842715,25.8954305 33.7842715,27 C33.7842715,28.1045695 34.679702,29 35.7842715,29 C36.888841,29 37.7842715,28.1045695 37.7842715,27 C37.7842715,25.8954305 36.888841,25 35.7842715,25 Z" id="path-4"></path>
        <filter x="-47.7%" y="-39.3%" width="195.4%" height="192.9%" filterUnits="objectBoundingBox" id="filter-5">
            <feOffset dx="0" dy="1" in="SourceAlpha" result="shadowOffsetOuter1"></feOffset>
            <feGaussianBlur stdDeviation="2" in="shadowOffsetOuter1" result="shadowBlurOuter1"></feGaussianBlur>
            <feColorMatrix values="0 0 0 0 0.478431373   0 0 0 0 0.28627451   0 0 0 0 0.0196078431  0 0 0 0.2 0" type="matrix" in="shadowBlurOuter1"></feColorMatrix>
        </filter>
    </defs>
    <g id="icon/半成品带管理" stroke="none" stroke-width="1" fill="none" fill-rule="evenodd">
        <path d="M2.5638852,7 L7,7 L7,7 L9.93578949,13 L38.0416122,13 L41,7 L45.4361148,7 C46.3276335,7 46.6509198,7.09282561 46.9768457,7.2671327 C47.3027716,7.4414398 47.5585602,7.69722837 47.7328673,8.0231543 C47.9071744,8.34908022 48,8.67236646 48,9.5638852 L48,38.4361148 C48,39.3276335 47.9071744,39.6509198 47.7328673,39.9768457 C47.5585602,40.3027716 47.3027716,40.5585602 46.9768457,40.7328673 C46.6509198,40.9071744 46.3276335,41 45.4361148,41 L2.5638852,41 C1.67236646,41 1.34908022,40.9071744 1.0231543,40.7328673 C0.697228371,40.5585602 0.441439796,40.3027716 0.267132704,39.9768457 C0.0928256111,39.6509198 -4.61451543e-14,39.3276335 -4.62543338e-14,38.4361148 L-4.61162218e-14,9.5638852 C-4.62254014e-14,8.67236646 0.0928256111,8.34908022 0.267132704,8.0231543 C0.441439796,7.69722837 0.697228371,7.4414398 1.0231543,7.2671327 C1.34908022,7.09282561 1.67236646,7 2.5638852,7 Z" id="矩形" fill="#FFBD29" fill-rule="nonzero"></path>
        <path d="M13,22 L35,22 C38.3137085,22 41,24.6862915 41,28 C41,31.3137085 38.3137085,34 35,34 L13,34 C9.6862915,34 7,31.3137085 7,28 C7,24.6862915 9.6862915,22 13,22 Z" id="矩形" fill="url(#linearGradient-1)" fill-rule="nonzero" opacity="0.400000006"></path>
        <path d="M12.5,7 L35.5,7 C36.3284271,7 37,7.67157288 37,8.5 C37,9.32842712 36.3284271,10 35.5,10 L12.5,10 C11.6715729,10 11,9.32842712 11,8.5 C11,7.67157288 11.6715729,7 12.5,7 Z" id="矩形" fill="#FB950A" fill-rule="nonzero"></path>
        <g id="椭圆形" opacity="0.600000024" fill-rule="nonzero">
            <use fill="black" fill-opacity="1" filter="url(#filter-3)" xlink:href="#path-2"></use>
            <circle stroke="#FFFFFF" stroke-width="3" stroke-linejoin="square" fill="#FFBD29" fill-rule="evenodd" cx="13" cy="28" r="4.5"></circle>
        </g>
        <g id="合并形状" fill-rule="nonzero">
            <use fill="black" fill-opacity="1" filter="url(#filter-5)" xlink:href="#path-4"></use>
            <use fill="#FFFFFF" xlink:href="#path-4"></use>
        </g>
    </g>
</svg>