<svg t="1620901145346" class="icon" viewBox="0 0 1024 1024" version="1.1" xmlns="http://www.w3.org/2000/svg" p-id="1793" width="200" height="200"><path d="M1015.321863 744.735455l-0.02 0.02a3095.670046 3095.670046 0 0 1-10.528021 113.280221c-3.998008 35.97407-33.130065 63.954125-69.208135 66.83813-282.354551 22.726044-564.751103 22.726044-847.105654 0-36.264071-2.904006-65.254127-31.152061-69.270136-67.290131C-6.586133 626.059223-6.380132 394.532771 19.765919 163.008318c3.852008-34.078067 30.308059-61.25612 64.242125-66.242129 129.824254-19.120037 246.112481-19.574038 357.764699-1.340003 33.358065 5.440011 59.092115 32.450063 62.882123 66.014129 0.494001 4.348008 0.968002 8.694017 1.442002 13.042026 4.204008 38.530075 36.818072 67.642132 75.574148 67.456132a5277.770308 5277.770308 0 0 1 365.862715 10.982021c38.118074 2.472005 68.384134 32.946064 70.712138 71.084139a3099.530054 3099.530054 0 0 1-2.924006 420.730822z" fill="#F1D333" p-id="1794"></path><path d="M1015.301863 744.757455a3095.670046 3095.670046 0 0 1-10.528021 113.280221c-3.998008 35.97407-33.130065 63.954125-69.208135 66.83813-282.354551 22.726044-564.751103 22.726044-847.105654 0-36.264071-2.906006-65.254127-31.154061-69.270136-67.292131C-6.586133 626.059223-6.380132 394.532771 19.765919 163.008318c3.852008-34.078067 30.308059-61.25612 64.242125-66.242129 0 155.950305-35.78807 675.517319 129.350253 711.75939 165.120323 36.242071 672.943314 65.170127 801.943566-63.768124z" fill="#EAB14D" p-id="1795"></path><path d="M575.487004 378.99874v383.238749c0 16.532032 13.402026 29.934058 29.934058 29.934058h201.138393c16.532032 0 29.934058-13.402026 29.934059-29.934058V378.99874h85.512167c26.668052 0 40.024078-32.244063 21.166041-51.1001l-191.070373-191.070373c-25.46605-25.46605-66.75613-25.46605-92.22218 0l-191.070373 191.070373c-18.858037 18.858037-5.502011 51.1001 21.166041 51.1001z" fill="#DD636E" p-id="1796"></path></svg>