<?xml version="1.0" encoding="UTF-8"?>
<svg width="48px" height="48px" viewBox="0 0 48 48" version="1.1" xmlns="http://www.w3.org/2000/svg" xmlns:xlink="http://www.w3.org/1999/xlink">
    <title>icon/空白介质入库</title>
    <g id="icon/空白介质入库" stroke="none" stroke-width="1" fill="none" fill-rule="evenodd">
        <path d="M2.5638852,6 L7,6 L7,6 L9.93578949,12 L38.0416122,12 L41,6 L45.4361148,6 C46.3276335,6 46.6509198,6.09282561 46.9768457,6.2671327 C47.3027716,6.4414398 47.5585602,6.69722837 47.7328673,7.0231543 C47.9071744,7.34908022 48,7.67236646 48,8.5638852 L48,37.4361148 C48,38.3276335 47.9071744,38.6509198 47.7328673,38.9768457 C47.5585602,39.3027716 47.3027716,39.5585602 46.9768457,39.7328673 C46.6509198,39.9071744 46.3276335,40 45.4361148,40 L2.5638852,40 C1.67236646,40 1.34908022,39.9071744 1.0231543,39.7328673 C0.697228371,39.5585602 0.441439796,39.3027716 0.267132704,38.9768457 C0.0928256111,38.6509198 -4.61451543e-14,38.3276335 -4.62543338e-14,37.4361148 L-4.61162218e-14,8.5638852 C-4.62254014e-14,7.67236646 0.0928256111,7.34908022 0.267132704,7.0231543 C0.441439796,6.69722837 0.697228371,6.4414398 1.0231543,6.2671327 C1.34908022,6.09282561 1.67236646,6 2.5638852,6 Z" id="矩形" fill="#328FF6" fill-rule="nonzero"></path>
        <path d="M12.5,6 L35.5,6 C36.3284271,6 37,6.67157288 37,7.5 C37,8.32842712 36.3284271,9 35.5,9 L12.5,9 C11.6715729,9 11,8.32842712 11,7.5 C11,6.67157288 11.6715729,6 12.5,6 Z" id="矩形" fill="#2975F9" fill-rule="nonzero"></path>
        <path d="M25,34 C24.4477153,34 24,33.5522847 24,33 C24,32.4477153 24.4477153,32 25,32 L29,32 L29,22 L25,22 C24.4477153,22 24,21.5522847 24,21 C24,20.4477153 24.4477153,20 25,20 L30,20 L30,20 C30.5522847,20 31,20.4477153 31,21 L31,33 L31,33 C31,33.5128358 30.6139598,33.9355072 30.1166211,33.9932723 L30,34 L30,34 L25,34 Z" id="合并形状" fill="#FFFFFF" fill-rule="nonzero"></path>
        <path d="M23.7071068,23.4644661 L27.2426407,27 L23.7071068,30.5355339 C23.3165825,30.9260582 22.6834175,30.9260582 22.2928932,30.5355339 C21.9023689,30.1450096 21.9023689,29.5118446 22.2928932,29.1213203 L23.414,27.9995729 L18,28 C17.4477153,28 17,27.5522847 17,27 C17,26.4477153 17.4477153,26 18,26 L23.414,25.9995729 L22.2928932,24.8786797 C21.9023689,24.4881554 21.9023689,23.8549904 22.2928932,23.4644661 C22.6834175,23.0739418 23.3165825,23.0739418 23.7071068,23.4644661 Z" id="合并形状" fill="#FFFFFF" fill-rule="nonzero"></path>
    </g>
</svg>