<svg t="1620900971390" class="icon" viewBox="0 0 1024 1024" version="1.1" xmlns="http://www.w3.org/2000/svg" p-id="1511" width="200" height="200"><path d="M444.812 642.07l-250.54 250.54 62.594 62.594L0 1024l68.816-256.866 62.594 62.614 249.654-249.654a144.34 144.34 0 0 0 63.748 61.976z" fill="#DD636E" p-id="1512"></path><path d="M1024 0l-68.796 256.866-62.614-62.594-255.134 255.134a144.454 144.454 0 0 0-61.976-63.748L829.728 131.41l-62.594-62.594z" fill="#78D0B1" p-id="1513"></path><path d="M194.272 131.41l251.796 251.796c-27.382 13.146-49.944 34.716-64.366 61.358L131.41 194.272l-62.594 62.594L0 0l256.866 68.816z" fill="#F1D333" p-id="1514"></path><path d="M767.134 955.204l62.614-62.614-253.032-253.034a144.562 144.562 0 0 0 61.358-64.346l254.538 254.516 62.594-62.594L1024 1024z" fill="#80B4FB" p-id="1515"></path><path d="M786.372 437.99v341.462c0 28.242-22.884 51.126-51.114 51.126H315.274c-24.128 0-44.344-16.718-49.716-39.204l-0.206-29.23-1.192-174.07V244.548c0-28.242 22.884-51.126 51.114-51.126h226.53c20.358 0 86.292 56.216 144.572 115.418 53.178 54.038 99.996 110.56 99.996 129.15z" fill="#DDEAFB" p-id="1516"></path><path d="M786.372 437.99v125.086c0-0.142-0.012-0.282-0.012-0.436-3.846-153.482-128.868-160.584-169.75-201.468l69.766-52.332c53.178 54.038 99.996 110.56 99.996 129.15z" fill="#CBE2FF" p-id="1517"></path><path d="M541.798 193.422h-125.086c0.14 0 0.282 0.012 0.436 0.012 153.482 3.846 160.584 128.868 201.468 169.75l52.332-69.766c-54.038-53.178-110.562-99.996-129.15-99.996z" fill="#CBE2FF" p-id="1518"></path><path d="M786.372 437.998v21.626c0-45.528-36.92-82.448-82.448-82.448h-50.182c-28.228 0-51.122-22.894-51.122-51.122v-50.182c0-45.528-36.92-82.448-82.448-82.448h21.626a146.852 146.852 0 0 1 103.828 43.004l97.742 97.742a146.85 146.85 0 0 1 43.004 103.828z" fill="#BED8FB" p-id="1519"></path><path d="M727.282 520.704H323.246a15.452 15.452 0 1 1 0-30.904h404.036a15.454 15.454 0 0 1 0 30.904zM727.282 579.814H323.246a15.452 15.452 0 1 1 0-30.904h404.036a15.452 15.452 0 1 1 0 30.904zM727.282 638.926H323.246a15.452 15.452 0 1 1 0-30.904h404.036a15.452 15.452 0 1 1 0 30.904zM471.666 698.038h-148.42a15.452 15.452 0 1 1 0-30.904h148.42a15.452 15.452 0 1 1 0 30.904zM471.666 356.75h-148.42a15.452 15.452 0 1 1 0-30.904h148.42c8.536 0 15.452 6.918 15.452 15.452s-6.916 15.452-15.452 15.452z" fill="#617881" p-id="1520"></path></svg>