<?xml version="1.0" encoding="UTF-8"?>
<svg width="48px" height="48px" viewBox="0 0 48 48" version="1.1" xmlns="http://www.w3.org/2000/svg" xmlns:xlink="http://www.w3.org/1999/xlink">
    <title>icon/空白带领用核算统计</title>
    <defs>
        <path d="M21.2819426,23 L29.7180574,23 C30.1638168,23 30.3254599,23.0464128 30.4884229,23.1335664 C30.6513858,23.2207199 30.7792801,23.3486142 30.8664336,23.5115771 C30.9535872,23.6745401 31,23.8361832 31,24.2819426 L31,33.7180574 C31,34.1638168 30.9535872,34.3254599 30.8664336,34.4884229 C30.7792801,34.6513858 30.6513858,34.7792801 30.4884229,34.8664336 C30.3254599,34.9535872 30.1638168,35 29.7180574,35 L21.2819426,35 C20.8361832,35 20.6745401,34.9535872 20.5115771,34.8664336 C20.3486142,34.7792801 20.2207199,34.6513858 20.1335664,34.4884229 C20.0464128,34.3254599 20,34.1638168 20,33.7180574 L20,24.2819426 C20,23.8361832 20.0464128,23.6745401 20.1335664,23.5115771 C20.2207199,23.3486142 20.3486142,23.2207199 20.5115771,23.1335664 C20.6745401,23.0464128 20.8361832,23 21.2819426,23 Z" id="path-1"></path>
        <filter x="-59.1%" y="-45.8%" width="218.2%" height="208.3%" filterUnits="objectBoundingBox" id="filter-2">
            <feOffset dx="0" dy="1" in="SourceAlpha" result="shadowOffsetOuter1"></feOffset>
            <feGaussianBlur stdDeviation="2" in="shadowOffsetOuter1" result="shadowBlurOuter1"></feGaussianBlur>
            <feColorMatrix values="0 0 0 0 0.490196078   0 0 0 0 0.133333333   0 0 0 0 0.125490196  0 0 0 0.2 0" type="matrix" in="shadowBlurOuter1"></feColorMatrix>
        </filter>
    </defs>
    <g id="icon/空白带领用核算统计" stroke="none" stroke-width="1" fill="none" fill-rule="evenodd">
        <path d="M2.5638852,7 L7,7 L7,7 L9.93578949,13 L38.0416122,13 L41,7 L45.4361148,7 C46.3276335,7 46.6509198,7.09282561 46.9768457,7.2671327 C47.3027716,7.4414398 47.5585602,7.69722837 47.7328673,8.0231543 C47.9071744,8.34908022 48,8.67236646 48,9.5638852 L48,38.4361148 C48,39.3276335 47.9071744,39.6509198 47.7328673,39.9768457 C47.5585602,40.3027716 47.3027716,40.5585602 46.9768457,40.7328673 C46.6509198,40.9071744 46.3276335,41 45.4361148,41 L2.5638852,41 C1.67236646,41 1.34908022,40.9071744 1.0231543,40.7328673 C0.697228371,40.5585602 0.441439796,40.3027716 0.267132704,39.9768457 C0.0928256111,39.6509198 -4.61451543e-14,39.3276335 -4.62543338e-14,38.4361148 L-4.61162218e-14,9.5638852 C-4.62254014e-14,8.67236646 0.0928256111,8.34908022 0.267132704,8.0231543 C0.441439796,7.69722837 0.697228371,7.4414398 1.0231543,7.2671327 C1.34908022,7.09282561 1.67236646,7 2.5638852,7 Z" id="矩形" fill="#FD4541" fill-rule="nonzero"></path>
        <path d="M12.5,7 L35.5,7 C36.3284271,7 37,7.67157288 37,8.5 C37,9.32842712 36.3284271,10 35.5,10 L12.5,10 C11.6715729,10 11,9.32842712 11,8.5 C11,7.67157288 11.6715729,7 12.5,7 Z" id="矩形" fill="#D8200E" fill-rule="nonzero"></path>
        <g id="矩形" fill-rule="nonzero">
            <use fill="black" fill-opacity="1" filter="url(#filter-2)" xlink:href="#path-1"></use>
            <use fill="#FFFFFF" xlink:href="#path-1"></use>
        </g>
        <path d="M23,26 C23.5522847,26 24,26.4477153 24,27 L24,29 L28,29 C28.5522847,29 29,29.4477153 29,30 C29,30.5522847 28.5522847,31 28,31 L23,31 L23,31 C22.4477153,31 22,30.5522847 22,30 L22,27 C22,26.4477153 22.4477153,26 23,26 Z" id="合并形状" fill="#FD4541" fill-rule="nonzero" transform="translate(25.500000, 28.500000) rotate(-45.000000) translate(-25.500000, -28.500000) "></path>
        <path d="M25,20 L25,22 L19,22 L19,29.999 L17,30 L17,21 C17,20.4477153 17.4477153,20 18,20 L25,20 Z" id="合并形状" fill="#FFFFFF" fill-rule="nonzero" opacity="0.400000006"></path>
        <path d="M18,29 C18.5522847,29 19,29.4477153 19,30 C19,30.5522847 18.5522847,31 18,31 C17.4477153,31 17,30.5522847 17,30 C17,29.4477153 17.4477153,29 18,29 Z M25,20 C25.5522847,20 26,20.4477153 26,21 C26,21.5522847 25.5522847,22 25,22 C24.4477153,22 24,21.5522847 24,21 C24,20.4477153 24.4477153,20 25,20 Z" id="合并形状" fill="#FFFFFF" fill-rule="nonzero" opacity="0.400000006"></path>
    </g>
</svg>